<svg version="1.1" viewBox="0.0 0.0 2690.0 508.0" fill="none" stroke="none" stroke-linecap="square" stroke-miterlimit="10" xmlns:xlink="http://www.w3.org/1999/xlink" xmlns="http://www.w3.org/2000/svg"><clipPath id="p.0"><path d="m0 0l2690.0 0l0 508.0l-2690.0 0l0 -508.0z" clip-rule="nonzero"/></clipPath><g clip-path="url(#p.0)"><path fill="#000000" fill-opacity="0.0" d="m0 0l2690.0 0l0 508.0l-2690.0 0z" fill-rule="evenodd"/><path fill="#000000" fill-opacity="0.0" d="m129.45145 16.31496l101.66928 0l0 119.086624l-101.66928 0z" fill-rule="evenodd"/><path stroke="#000000" stroke-width="16.0" stroke-linejoin="round" stroke-linecap="butt" d="m129.45145 16.31496l101.66928 0l0 119.086624l-101.66928 0z" fill-rule="evenodd"/><path fill="#000000" fill-opacity="0.0" d="m250.88715 76.8189l405.7638 0" fill-rule="evenodd"/><path stroke="#000000" stroke-width="16.0" stroke-linejoin="round" stroke-linecap="butt" stroke-dasharray="64.0,48.0" d="m250.88715 76.8189l405.7638 0" fill-rule="evenodd"/><path fill="#000000" fill-opacity="0.0" d="m62.593174 159.40158l240.91602 0l7.3280945 26.956955l-40.3071 0l54.963257 120.889694l216.18375 27.771423l0 69.43091l-512.979 0l0 -76.782166l61.37533 -45.7435l0 -96.38316l-32.06037 0z" fill-rule="evenodd"/><path stroke="#000000" stroke-width="16.0" stroke-linejoin="round" stroke-linecap="butt" d="m62.593174 159.40158l240.91602 0l7.3280945 26.956955l-40.3071 0l54.963257 120.889694l216.18375 27.771423l0 69.43091l-512.979 0l0 -76.782166l61.37533 -45.7435l0 -96.38316l-32.06037 0z" fill-rule="evenodd"/><path fill="#000000" fill-opacity="0.0" d="m129.45145 194.07236l0 158.8451l125.503296 0l19.229889 -63.081177l-44.532394 -96.52394z" fill-rule="evenodd"/><path stroke="#000000" stroke-width="16.0" stroke-linejoin="round" stroke-linecap="butt" d="m129.45145 194.07236l0 158.8451l125.503296 0l19.229889 -63.081177l-44.532394 -96.52394z" fill-rule="evenodd"/><path fill="#000000" fill-opacity="0.0" d="m28.700787 450.0234l0 0c0 -12.666199 10.267975 -22.934174 22.934162 -22.934174l467.10803 0c6.0825195 0 11.915955 2.4162903 16.216919 6.7172546c4.3009644 4.300995 6.717285 10.134399 6.717285 16.216919l0 17.344269c0 12.666199 -10.268005 22.934174 -22.934204 22.934174l-467.10803 0l0 0c-12.666187 0 -22.934162 -10.267975 -22.934162 -22.934174z" fill-rule="evenodd"/><path stroke="#000000" stroke-width="16.0" stroke-linejoin="round" stroke-linecap="butt" d="m28.700787 450.0234l0 0c0 -12.666199 10.267975 -22.934174 22.934162 -22.934174l467.10803 0c6.0825195 0 11.915955 2.4162903 16.216919 6.7172546c4.3009644 4.300995 6.717285 10.134399 6.717285 16.216919l0 17.344269c0 12.666199 -10.268005 22.934174 -22.934204 22.934174l-467.10803 0l0 0c-12.666187 0 -22.934162 -10.267975 -22.934162 -22.934174z" fill-rule="evenodd"/><path fill="#000000" fill-opacity="0.0" d="m564.58795 332.03644l0 142.58261l76.02887 15.696747l-32.97638 -182.47852z" fill-rule="evenodd"/><path stroke="#000000" stroke-width="16.0" stroke-linejoin="round" stroke-linecap="butt" d="m564.58795 332.03644l0 142.58261l76.02887 15.696747l-32.97638 -182.47852z" fill-rule="evenodd"/><path fill="#000000" fill-opacity="0.0" d="m715.2861 139.40158l1962.7085 0l0 352.28345l-1962.7085 0z" fill-rule="evenodd"/><path fill="#000000" d="m739.9423 412.08157l0 -198.03125l22.25 0l0 175.78125l175.5 0l0 22.25l-197.75 0zm212.58228 0l0 0l0 -159.29688l22.515625 0l0 159.29688l-22.515625 0zm0 -188.96875l0 0l0 -22.515625l22.515625 0l0 22.515625l-22.515625 0zm58.78473 188.96875l0 -197.75l164.78125 0q9.0625 0 16.609375 4.390625q7.5625 4.390625 11.953125 11.953125q4.40625 7.546875 4.40625 16.609375l0 131.84375q0 9.0625 -4.40625 16.625q-4.390625 7.546875 -11.953125 11.9375q-7.546875 4.390625 -16.609375 4.390625l-164.78125 0zm32.953125 -22.25l131.82812 0q4.40625 0 7.5625 -3.15625q3.15625 -3.15625 3.15625 -7.546875l0 -131.84375q0 -4.390625 -3.15625 -7.546875q-3.15625 -3.15625 -7.5625 -3.15625l-131.82812 0q-4.390625 0 -7.5625 3.15625q-3.15625 3.15625 -3.15625 7.546875l0 131.84375q0 4.390625 3.15625 7.546875q3.171875 3.15625 7.5625 3.15625zm196.11023 22.25l0 -164.79688q0 -9.0625 4.390625 -16.609375q4.390625 -7.5625 11.9375 -11.953125q7.5625 -4.390625 16.625 -4.390625l131.82812 0q9.0625 0 16.609375 4.390625q7.5625 4.390625 11.953125 11.953125q4.40625 7.546875 4.40625 16.609375l0 164.79688l-22.25 0l0 -72.234375l-153.26562 0l0 72.234375l-22.234375 0l0 0zm22.234375 -94.484375l153.26562 0l0 -70.3125q0 -4.390625 -3.15625 -7.546875q-3.15625 -3.15625 -7.5625 -3.15625l-131.82812 0q-4.390625 0 -7.5625 3.15625q-3.15625 3.15625 -3.15625 7.546875l0 70.3125l0 0zm373.8158 94.484375l-64.546875 -76.90625l29.109375 0l64.828125 76.625l0 0.28125l-29.390625 0zm-167.0 0l0 -197.48438l164.79688 0q9.0625 0 16.609375 4.53125q7.5625 4.53125 11.953125 11.953125q4.40625 7.421875 4.40625 16.484375l0 57.953125q0 9.0625 -4.40625 16.484375q-4.390625 7.40625 -11.953125 11.9375q-7.546875 4.53125 -16.609375 4.53125l-142.54688 0l0 73.609375l-22.25 0zm32.96875 -96.125l131.82812 0q4.390625 0 7.546875 -3.015625q3.171875 -3.03125 3.171875 -7.421875l0 -57.953125q0 -4.390625 -3.171875 -7.546875q-3.15625 -3.171875 -7.546875 -3.171875l-131.82812 0q-4.40625 0 -7.5625 3.171875q-3.15625 3.15625 -3.15625 7.546875l0 57.953125q0 4.390625 3.15625 7.421875q3.15625 3.015625 7.5625 3.015625zm194.4508 26.09375l0 0l0 -22.53125l107.12512 0l0 22.53125l-107.12512 0zm141.16919 70.03125l0 -197.75l30.5 0l145.01562 172.48438l0 -172.48438l22.25 0l0 197.75l-30.5 0l-145.01562 -172.48438l0 172.48438l-22.25 0zm260.3734 0q-9.0625 0 -16.609375 -4.53125q-7.546875 -4.53125 -12.09375 -12.078125q-4.53125 -7.5625 -4.53125 -16.625l0 -92.828125q0 -9.0625 4.53125 -16.609375q4.546875 -7.5625 12.09375 -12.09375q7.546875 -4.53125 16.609375 -4.53125l95.59375 0q9.328125 0 16.875 4.53125q7.5625 4.53125 12.09375 12.09375q4.53125 7.546875 4.53125 16.609375l0 57.671875l-139.79688 0l0 35.15625q0 4.390625 3.15625 7.5625q3.15625 3.15625 7.546875 3.15625l129.09375 0l0 22.515625l-129.09375 0l0 0zm-10.703125 -90.90625l117.0 0l0 -35.15625q0 -4.40625 -3.15625 -7.5625q-3.15625 -3.15625 -7.546875 -3.15625l-95.59375 0q-4.390625 0 -7.546875 3.15625q-3.15625 3.15625 -3.15625 7.5625l0 35.15625zm335.90576 90.90625l-64.546875 -76.90625l29.109375 0l64.828125 76.625l0 0.28125l-29.390625 0zm-167.0 0l0 -197.48438l164.79688 0q9.0625 0 16.609375 4.53125q7.5625 4.53125 11.953125 11.953125q4.40625 7.421875 4.40625 16.484375l0 57.953125q0 9.0625 -4.40625 16.484375q-4.390625 7.40625 -11.953125 11.9375q-7.546875 4.53125 -16.609375 4.53125l-142.54688 0l0 73.609375l-22.25 0zm32.96875 -96.125l131.82812 0q4.390625 0 7.546875 -3.015625q3.171875 -3.03125 3.171875 -7.421875l0 -57.953125q0 -4.390625 -3.171875 -7.546875q-3.15625 -3.171875 -7.546875 -3.171875l-131.82812 0q-4.40625 0 -7.5625 3.171875q-3.15625 3.15625 -3.15625 7.546875l0 57.953125q0 4.390625 3.15625 7.421875q3.15625 3.015625 7.5625 3.015625zm194.1853 96.125l0 -197.75l180.4375 0l0 22.25l-158.20312 0l0 65.359375l127.171875 0l0 22.53125l-127.171875 0l0 87.609375l-22.234375 0z" fill-rule="nonzero"/><path fill="#000000" d="m129.45145 47.85827l101.66928 0l0 56.0l-101.66928 0z" fill-rule="evenodd"/><path stroke="#000000" stroke-width="1.0" stroke-linejoin="round" stroke-linecap="butt" d="m129.45145 47.85827l101.66928 0l0 56.0l-101.66928 0z" fill-rule="evenodd"/><path fill="#ff0000" d="m922.76117 199.59538l31.844666 2.1362305E-4l9.840271 -30.280716l9.840332 30.280716l31.844666 -2.1362305E-4l-25.763 18.71431l9.840759 30.280579l-25.762756 -18.714645l-25.762695 18.714645l9.840759 -30.280579z" fill-rule="evenodd"/></g></svg>